<?xml version="1.0" encoding="iso-8859-1"?>
<!-- Generator: Adobe Illustrator 19.0.0, SVG Export Plug-In . SVG Version: 6.00 Build 0)  -->
<svg version="1.1" id="Layer_1" xmlns="http://www.w3.org/2000/svg" xmlns:xlink="http://www.w3.org/1999/xlink" x="0px" y="0px"
	 viewBox="0 0 511.999 511.999" style="enable-background:new 0 0 511.999 511.999;" xml:space="preserve">
<g>
	<g>
		<path d="M278.888,300.559c-6.366-21.845-110.901-13.276-110.901-13.276c-17.307-0.107-31.691-11.376-36.8-26.612
			c-10.078,12.424-25.699,19.86-42.844,18.683c-22.182,6.592-45.116-2.649-57.006-21.181c-20.314,7.487-33.54,22.617-31.034,37.491
			c3.04,18.045,28.074,28.871,55.915,24.181c0.455-0.077,0.903-0.167,1.354-0.251c12.773,18.502,53.897,27.048,100.084,19.266
			c18.304-3.084,35.018-8.331,48.901-14.89c8.311,2.654,20.431,3.208,33.546,0.998C263.141,321.086,281.613,309.904,278.888,300.559
			z"/>
	</g>
</g>
<g>
	<g>
		<path d="M497.033,197.318l-91.228-26.247c-3.429-0.986-7.054-1.069-10.521-0.24c-9.879,2.358-77.112,18.409-87.877,20.98
			l-138.124-5.11c-11.421-0.424-20.932,8.686-21.016,20.104l-0.304,41.262c-0.083,11.196,8.942,20.348,20.142,20.417l30.343,0.188
			l-33.278-34.378l57.696,37.065c4.645,2.983,10.472,3.369,15.383,1.216l59.744-26.199c8.254-3.619,12.02-13.25,8.396-21.511
			c0-0.001-0.001-0.003-0.002-0.004c-3.582-8.16-13.173-12.048-21.509-8.392l-51.727,22.682l-52.249-33.564l51.432,16.807
			l46.249-20.281c17.126-7.51,37.563,1.25,43.366,19.735l67.819-25.873c3.88-1.48,7.949-1.563,11.654-0.494
			c8.505,2.449,81.236,23.373,96.22,27.684c4.054,1.166,7.751,2.963,11.035,5.241c1.072-1.662,1.936-3.495,2.51-5.493
			C514.346,211.935,508.01,200.477,497.033,197.318z"/>
	</g>
</g>
<g>
	<g>
		<path d="M492.966,239.425l-91.227-26.247c-2.975-0.855-6.101-1.032-9.155-0.519l-69.936,11.787
			c3.311,14.821-4.224,30.087-18.358,36.285c-11.85,5.196-8.346,3.659-19.329,8.477c10.946,0.068,21.397-0.329,21.397-0.329
			s28.928-4.617,88.463-14.652l86.708,24.947c10.981,3.157,22.437-3.184,25.592-14.157
			C510.279,254.041,503.941,242.582,492.966,239.425z"/>
	</g>
</g>
<g>
	<g>
		<path d="M92.116,190.551c-0.082,0-0.161-0.001-0.243-0.001c-4.605,0-9.023,0.814-13.116,2.306l7.178,21.047l9.12-1.358
			c7.827-1.165,15.384,3.421,17.946,10.934l0.757,2.219c2.703,7.927-0.975,16.589-8.555,20.149l-7.218,3.39l3.394,9.953
			c0.75,2.201,0.943,4.457,0.675,6.628c16.135-4.435,28.037-19.152,28.146-36.708C130.331,207.945,113.28,190.682,92.116,190.551z"
			/>
	</g>
</g>
<g>
	<g>
		<path d="M102.121,229.666l-0.757-2.219c-0.643-1.883-2.538-3.033-4.5-2.742l-19.257,2.867L66.49,194.971
			c-0.265-0.776-0.99-1.271-1.775-1.271c-0.158,0-0.317,0.02-0.476,0.061h-0.002c-20.479,5.364-32.734,26.314-27.371,46.793
			c5.84,22.299,29.962,34.498,51.415,25.839c1.269-0.512,1.903-1.941,1.462-3.236l-6.946-20.371l17.18-8.069
			C101.874,233.827,102.798,231.651,102.121,229.666z"/>
	</g>
</g>
<g>
</g>
<g>
</g>
<g>
</g>
<g>
</g>
<g>
</g>
<g>
</g>
<g>
</g>
<g>
</g>
<g>
</g>
<g>
</g>
<g>
</g>
<g>
</g>
<g>
</g>
<g>
</g>
<g>
</g>
</svg>
