<?xml version="1.0" encoding="iso-8859-1"?>
<!-- Generator: Adobe Illustrator 19.0.0, SVG Export Plug-In . SVG Version: 6.00 Build 0)  -->
<svg version="1.1" id="Layer_1" xmlns="http://www.w3.org/2000/svg" xmlns:xlink="http://www.w3.org/1999/xlink" x="0px" y="0px"
	 viewBox="0 0 512 512" style="enable-background:new 0 0 512 512;" xml:space="preserve">
<g>
	<g>
		<path d="M309.847,159.966c-0.098-19.297-15.877-34.996-35.175-34.996c-8.165,0-68.003,0-75.944,0
			c-1.117,0,0.113-0.095-21.417,2.153l25.542-31.212c1.606-1.962,2.633-4.204,3.125-6.524c1.599,15.095,14.367,26.857,29.886,26.857
			c16.6,0,30.058-13.458,30.058-30.058c0-16.6-13.458-30.058-30.058-30.058c-15.518,0-28.286,11.761-29.886,26.854
			c-0.701-3.294-2.476-6.383-5.285-8.681c-6.563-5.372-16.239-4.405-21.61,2.159l-49.169,60.086
			c-3.941,4.817-4.586,11.536-1.632,17.013c2.958,5.485,8.931,8.631,15.111,7.985l52.686-5.501c0,0,0,246.438,0,247.876
			c0,10.177,8.25,18.427,18.427,18.427s18.427-8.25,18.427-18.427V264.809h5.466v139.108c0,10.178,8.25,18.427,18.427,18.427
			c10.177,0,18.427-8.25,18.427-18.427c0-2.753,0-210.781,0-243.786c0-1.069,0.865-1.935,1.933-1.939
			c1.069-0.003,1.939,0.859,1.944,1.929c0.319,63.482,0.26,40.837,0.26,99.318c0,8.482,6.875,15.357,15.357,15.357
			c8.482,0,15.357-6.875,15.357-15.357C310.107,200.864,310.166,223.548,309.847,159.966z"/>
	</g>
</g>
<g>
	<g>
		<path d="M511.735,159.967c-0.097-19.299-15.876-34.999-35.174-34.999c-6.915,0-68.683,0-75.944,0
			c-1.118,0,0.106-0.095-21.417,2.153l25.542-31.212c1.606-1.962,2.633-4.204,3.125-6.524c1.599,15.095,14.367,26.857,29.886,26.857
			c16.6,0,30.058-13.458,30.058-30.058c0-16.6-13.458-30.058-30.058-30.058c-15.518,0-28.286,11.761-29.886,26.854
			c-0.701-3.294-2.476-6.382-5.285-8.681c-6.564-5.372-16.239-4.405-21.61,2.159l-49.17,60.086
			c-3.941,4.817-4.586,11.536-1.632,17.013c2.958,5.485,8.931,8.631,15.111,7.985l52.686-5.501c0,0,0,246.438,0,247.875
			c0,10.178,8.25,18.427,18.427,18.427s18.427-8.25,18.427-18.427V264.809h5.466v139.108c0,10.178,8.25,18.427,18.427,18.427
			c10.177,0,18.427-8.25,18.427-18.427c0-2.753,0-210.78,0-243.786c0-1.069,0.865-1.935,1.933-1.939
			c1.069-0.003,1.938,0.859,1.943,1.929c0.32,63.482,0.261,40.837,0.261,99.318c0,8.482,6.875,15.357,15.357,15.357
			s15.357-6.875,15.357-15.357C511.996,200.863,512.055,223.55,511.735,159.967z"/>
	</g>
</g>
<g>
	<g>
		<path d="M36.697,143.17c-5.177-8.952-5.488-19.379-1.757-28.226l-22.938,3.123c0.987,15.47,12.668,28.032,27.736,30.361
			L36.697,143.17z"/>
	</g>
</g>
<g>
	<g>
		<path d="M110.777,176.225L77.89,119.35c-4.385-7.584-14.087-10.176-21.67-5.791c-7.584,4.385-10.176,14.087-5.792,21.67
			l18.708,32.353l-18.598-0.477l-4.117-7.12H24.826c-12.265,0-22.207,9.942-22.207,22.206l-0.39,254.595
			c-0.03,10.512,8.467,19.058,18.979,19.087c0.019,0,0.037,0,0.055,0c10.486,0,19.002-8.487,19.032-18.98l0.398-140.716
			c0-0.018-0.002-0.036-0.002-0.053h8.21l0.011,140.717c0,10.512,8.523,19.032,19.035,19.031c10.512,0,19.032-8.523,19.032-19.035
			c-0.001-12.012-0.345-212.397-0.345-224.406l-38.054-13.646l48.06,1.232c0.136,0.003,0.272,0.006,0.408,0.006
			C109.254,200.026,116.877,186.775,110.777,176.225z"/>
	</g>
</g>
<g>
	<g>
		<path d="M84.485,89.294l-11.407-3.807c-3.792-1.266-6.534-4.575-7.073-8.536l-1.283-14.562c-0.336-3.816-4.701-5.801-7.797-3.595
			L32.334,76.319c-7.014,5-15.042,8.395-23.515,9.946l-6.84,1.252c-0.818,0.149-1.5,0.71-1.807,1.482
			c-0.307,0.772-0.195,1.648,0.295,2.318l5.24,7.151l0.588,4.318c0.215,1.576,1.563,2.719,3.11,2.719
			c0.142,0,0.284-0.01,0.428-0.029c7.555-1.028,66.756-9.09,74.082-10.087C87.198,94.942,87.627,90.342,84.485,89.294z"/>
	</g>
</g>
<g>
</g>
<g>
</g>
<g>
</g>
<g>
</g>
<g>
</g>
<g>
</g>
<g>
</g>
<g>
</g>
<g>
</g>
<g>
</g>
<g>
</g>
<g>
</g>
<g>
</g>
<g>
</g>
<g>
</g>
</svg>
