<?xml version="1.0" encoding="iso-8859-1"?>
<!-- Generator: Adobe Illustrator 19.0.0, SVG Export Plug-In . SVG Version: 6.00 Build 0)  -->
<svg version="1.1" id="Layer_1" xmlns="http://www.w3.org/2000/svg" xmlns:xlink="http://www.w3.org/1999/xlink" x="0px" y="0px"
	 viewBox="0 0 512 512" style="enable-background:new 0 0 512 512;" xml:space="preserve">
<g>
	<g>
		<path d="M260.317,265.793l-69.391-53.964c-4.569-3.554-10.469-4.188-15.492-2.215c6.927,10.363,9.822,23.145,7.516,36.055
			l21.595,16.794h-27.92c-8.798,14.525-24.636,23.865-42.25,23.865c-17.452,0-33.383-9.208-42.262-23.887L67.457,262.4
			l18.617-15.267c-2.747-13.07-0.117-26.679,7.424-37.796c-4.896-1.509-10.43-0.618-14.689,2.874l-65.483,53.7
			c-5.161,4.232-7.107,11.247-4.865,17.531c2.241,6.285,8.188,10.486,14.861,10.496l65.509,0.109v87.633l-57.477,23.353
			c-6.354,2.581-11,8.163-12.389,14.879s0.664,13.683,5.474,18.572l66.268,67.375c7.956,8.09,20.968,8.203,29.063,0.241
			c8.092-7.96,8.2-20.971,0.241-29.063l-44.736-45.483l35.543-14.44h47.2l35.546,14.442l-44.724,45.484
			c-7.958,8.093-7.848,21.106,0.246,29.063c8.1,7.964,21.111,7.843,29.063-0.245l66.25-67.375
			c4.808-4.889,6.861-11.856,5.472-18.572c-1.389-6.715-6.037-12.296-12.389-14.877l-57.933-23.538v-87.42h71.069
			c6.752,0,12.758-4.289,14.949-10.676C267.756,277.012,265.647,269.938,260.317,265.793z"/>
	</g>
</g>
<g>
	<g>
		<circle cx="134.37" cy="236.971" r="35.495"/>
	</g>
</g>
<g>
	<g>
		<path d="M421.438,66.383c-7.163,3.14-15.217,4.808-23.571,4.808c-8.291,0-16.296-1.646-23.426-4.745
			c-2.396,4.2-6.689,7.001-12.716,7.001c1.575,18.351,16.959,32.757,35.716,32.757c18.762,0,34.148-14.413,35.716-32.769
			C428.271,73.304,423.838,70.641,421.438,66.383z"/>
	</g>
</g>
<g>
	<g>
		<path d="M444.743,263.015l-2.007,1.367c-0.559,4.195-5.258,39.45-5.932,44.505c-1.871,14.034-16.6,22.596-29.761,17.123
			l-6.106-2.539v125.922c0,12.141,9.842,21.984,21.984,21.984c12.141,0,21.984-9.842,21.984-21.984
			C444.902,260.68,444.743,263.015,444.743,263.015z"/>
	</g>
</g>
<g>
	<g>
		<path d="M394.549,212.761c-0.117-0.251-0.239-0.498-0.346-0.756c-1.941-4.704-1.934-9.882,0.021-14.582
			c4.069-9.786,29.821-71.71,33.605-80.811c-7.931,0-68.888,0-76.685,0c-23.021,0-41.846,18.729-41.962,41.75
			c-0.268,53.389-0.222,28.583-0.164,111.463c0.008,10.113,8.208,18.306,18.32,18.306c0.006,0,0.009,0,0.013,0
			c10.118-0.007,18.313-8.215,18.306-18.332c-0.058-82.754-0.103-57.999,0.164-111.253c0.007-1.276,1.043-2.305,2.319-2.301
			c1.275,0.003,2.307,1.038,2.307,2.313c0,39.837,0,280.929,0,290.83c0,12.141,9.842,21.984,21.984,21.984
			s21.984-9.842,21.984-21.984V320.758l-9.71-4.038c-11.018-4.582-16.255-17.274-11.672-28.292
			c5.379-12.867,8.798-21.045,14.199-33.967C380.052,240.493,383.092,223.395,394.549,212.761z"/>
	</g>
</g>
<g>
	<g>
		<path d="M487.276,23.279c-4.09-1.701-8.785,0.236-10.487,4.327l-4.625,11.121l-6.481-2.695c-4.09-1.701-8.785,0.236-10.487,4.327
			c-1.7,4.09,0.237,8.785,4.327,10.486l6.481,2.695l-61.596,148.12c-0.581,1.398-0.729,2.864-0.52,4.258l45.981-31.32
			c2.525-6.073,21.23-51.051,24.32-58.484c1.701-4.09-0.236-8.785-4.326-10.487c-3.189-1.326-6.74-0.435-8.96,1.961l30.699-73.823
			C493.304,29.676,491.367,24.981,487.276,23.279z"/>
	</g>
</g>
<g>
	<g>
		<path d="M394.975,264.535l-11.759,28.128c-2.251,5.412,0.312,11.622,5.723,13.874l22.338,9.289
			c6.419,2.669,13.67-1.469,14.594-8.396l4.809-36.081C418.186,276.002,404.46,273.089,394.975,264.535z"/>
	</g>
</g>
<g>
	<g>
		<path d="M502.064,183.304c-11.465-20.17-10.761-18.933-24.897-43.8l-17.806,42.819l2.503,4.403l-53.72,36.593
			c-8.363,5.696-10.523,17.092-4.828,25.454c5.694,8.358,17.09,10.526,25.454,4.827l67.681-46.102
			C504.338,202.126,506.779,191.599,502.064,183.304z"/>
	</g>
</g>
<g>
	<g>
		<path d="M442.224,59.074l-5.435-31.25h-0.12C435.174,12.267,418.38,0,397.867,0c-21.496,0-38.922,13.468-38.922,30.081
			c0,0.747-3.708,20.823-5.217,28.96c-0.326,1.758,1.026,3.376,2.806,3.376h5.851c1.053,0,2.02-0.58,2.517-1.509l5.209-9.748
			c7.062,5.553,16.886,9.001,27.756,9.001c10.96,0,20.855-3.506,27.929-9.14l5.213,9.874c0.495,0.936,1.466,1.521,2.524,1.521h5.881
			C441.182,62.417,442.527,60.82,442.224,59.074z"/>
	</g>
</g>
<g>
</g>
<g>
</g>
<g>
</g>
<g>
</g>
<g>
</g>
<g>
</g>
<g>
</g>
<g>
</g>
<g>
</g>
<g>
</g>
<g>
</g>
<g>
</g>
<g>
</g>
<g>
</g>
<g>
</g>
</svg>
