<?xml version="1.0" encoding="iso-8859-1"?>
<!-- Generator: Adobe Illustrator 19.0.0, SVG Export Plug-In . SVG Version: 6.00 Build 0)  -->
<svg version="1.1" id="Layer_1" xmlns="http://www.w3.org/2000/svg" xmlns:xlink="http://www.w3.org/1999/xlink" x="0px" y="0px"
	 viewBox="0 0 512.001 512.001" style="enable-background:new 0 0 512.001 512.001;" xml:space="preserve">
<g>
	<g>
		<path d="M175.091,117.651c-4.363-3.393-9.995-3.998-14.791-2.114c4.78,7.152,7.647,15.678,7.892,24.85l14.513-16.815
			L175.091,117.651z"/>
	</g>
</g>
<g>
	<g>
		<circle cx="121.091" cy="141.65" r="33.892"/>
	</g>
</g>
<g>
	<g>
		<path d="M332.875,118.016l-7.135,5.851l13.135,15.217c0.474-8.789,3.367-16.945,8.025-23.813
			C342.225,113.83,336.941,114.681,332.875,118.016z"/>
	</g>
</g>
<g>
	<g>
		<path d="M506.173,169.174l-66.253-51.523c-4.363-3.393-9.995-3.999-14.791-2.115c5,7.481,7.924,16.464,7.924,26.119
			c0,2.834-0.266,5.607-0.747,8.306l20.619,16.034h-26.657c-8.409,13.884-23.538,22.786-40.339,22.786
			c-28.638,0-41.05-23.895-41.05-23.895h-16.14l7.481-6.262c1.758-1.471,1.969-4.099,0.473-5.833l-23.823-27.6
			c-1.509-1.749-4.166-1.91-5.876-0.351l-11.976,10.92c-1.639,1.495-1.795,4.021-0.351,5.707l20.063,23.42h-13.971l-10.332-12.061
			l-20.073,16.459c-4.927,4.039-6.784,10.737-4.645,16.738c2.141,6,7.818,10.01,14.188,10.021l22.345,0.038
			c-17.565,22.681-34.917,33.568-51.715,32.411c-19.397-1.336-34.835-18.544-44.184-32.317h25.737
			c6.446,0,12.182-4.095,14.274-10.195c2.092-6.097,0.079-12.851-5.011-16.809l-22.561-17.545l-12.307,14.366h-13.97l20.063-23.42
			c1.443-1.685,1.288-4.212-0.351-5.707l-11.976-10.92c-1.703-1.553-4.362-1.403-5.875,0.351l-23.823,27.601
			c-1.498,1.735-1.283,4.363,0.473,5.833l7.481,6.262l-17.064-0.05c-8.529,14.13-23.767,22.836-40.335,22.836
			c-16.721,0-31.903-8.842-40.351-22.806l-23.541-0.039L74.98,151.36c-0.658-3.133-1.009-6.377-1.009-9.702
			c0-9.768,2.989-18.851,8.098-26.384c-4.675-1.441-9.958-0.59-14.025,2.745L5.522,169.286c-4.927,4.039-6.784,10.737-4.645,16.738
			c2.141,6,7.818,10.01,14.188,10.021l62.547,0.105v83.667l-54.876,22.296c-6.067,2.464-10.505,7.792-11.829,14.205
			c-1.326,6.413,0.634,13.065,5.227,17.733l63.27,64.329c7.615,7.742,20.04,7.812,27.748,0.231
			c7.726-7.599,7.829-20.022,0.23-27.748l-42.711-43.426l33.932-13.786h45.067l33.936,13.789l-42.701,43.426
			c-7.598,7.727-7.493,20.15,0.234,27.748c7.742,7.612,20.165,7.478,27.748-0.234l63.254-64.329
			c4.591-4.668,6.55-11.319,5.224-17.732c-1.326-6.411-5.764-11.74-11.829-14.204l-55.312-22.473v-83.465h29.441
			c9.697,15.92,29.129,41.023,56.099,42.9c27.184,1.897,49.719-20.658,65.651-42.971l27.027,0.046v83.667l-54.877,22.296
			c-6.067,2.464-10.503,7.792-11.829,14.205c-1.326,6.413,0.634,13.065,5.227,17.733l63.27,64.329
			c7.615,7.742,20.04,7.812,27.748,0.23c7.726-7.599,7.829-20.022,0.23-27.748l-42.711-43.426l33.933-13.786h45.067l33.936,13.789
			l-42.701,43.426c-7.598,7.727-7.493,20.151,0.234,27.748c7.742,7.612,20.165,7.478,27.748-0.234l63.253-64.329
			c4.591-4.668,6.55-11.319,5.223-17.732c-1.326-6.411-5.763-11.74-11.829-14.204l-55.311-22.473v-83.465h67.854
			c6.447,0,12.182-4.095,14.274-10.195C513.275,179.885,511.262,173.132,506.173,169.174z"/>
	</g>
</g>
<g>
	<g>
		<circle cx="385.931" cy="141.65" r="33.892"/>
	</g>
</g>
<g>
</g>
<g>
</g>
<g>
</g>
<g>
</g>
<g>
</g>
<g>
</g>
<g>
</g>
<g>
</g>
<g>
</g>
<g>
</g>
<g>
</g>
<g>
</g>
<g>
</g>
<g>
</g>
<g>
</g>
</svg>
