<?xml version="1.0" encoding="iso-8859-1"?>
<!-- Generator: Adobe Illustrator 19.0.0, SVG Export Plug-In . SVG Version: 6.00 Build 0)  -->
<svg version="1.1" id="Layer_1" xmlns="http://www.w3.org/2000/svg" xmlns:xlink="http://www.w3.org/1999/xlink" x="0px" y="0px"
	 viewBox="0 0 512.002 512.002" style="enable-background:new 0 0 512.002 512.002;" xml:space="preserve">
<g>
	<g>
		<path d="M243.553,150.737c-0.132-25.627-21.086-46.476-46.712-46.476c-10.844,0-90.304,0-100.85,0
			c-1.482,0,0.149-0.126-28.441,2.859l33.919-41.448c2.132-2.605,3.496-5.582,4.15-8.664c2.123,20.045,19.079,35.665,39.687,35.665
			c22.044,0,39.916-17.87,39.916-39.916c0-22.045-17.87-39.916-39.916-39.916c-20.607,0-37.563,15.618-39.687,35.662
			c-0.93-4.375-3.288-8.476-7.018-11.529c-8.715-7.133-21.564-5.848-28.696,2.867L4.611,119.631
			c-5.235,6.396-6.09,15.318-2.168,22.593c3.929,7.285,11.859,11.462,20.067,10.603l69.965-7.304c0,0,0,327.257,0,329.167
			c0,13.515,10.956,24.471,24.471,24.471c13.516,0,24.471-10.956,24.471-24.471v-184.73h7.259V474.69
			c0,13.515,10.955,24.471,24.471,24.471c13.516,0,24.471-10.956,24.471-24.471c0-3.657,0-279.907,0-323.736
			c0-1.419,1.148-2.57,2.567-2.574s2.574,1.141,2.582,2.561c0.424,84.301,0.345,54.231,0.345,131.891
			c0,11.263,9.13,20.393,20.393,20.393s20.393-9.13,20.393-20.393C243.899,205.047,243.977,235.171,243.553,150.737z"/>
	</g>
</g>
<g>
	<g>
		<path d="M511.649,150.737c-0.129-25.627-21.083-46.476-46.71-46.476c-9.183,0-91.208,0-100.85,0c-1.485,0,0.14-0.125-28.44,2.859
			l33.919-41.448c2.132-2.605,3.496-5.582,4.15-8.664c2.123,20.045,19.079,35.664,39.688,35.664
			c22.044,0,39.916-17.87,39.916-39.916s-17.87-39.916-39.916-39.916c-20.607,0-37.563,15.618-39.688,35.661
			c-0.93-4.374-3.288-8.476-7.018-11.528c-8.716-7.133-21.564-5.848-28.696,2.867l-65.294,79.79
			c-5.235,6.396-6.09,15.318-2.168,22.593c3.929,7.285,11.859,11.462,20.067,10.603l69.965-7.304c0,0,0,327.257,0,329.167
			c0,13.515,10.956,24.471,24.471,24.471s24.471-10.956,24.471-24.471V289.961h7.259V474.69c0,13.515,10.956,24.471,24.471,24.471
			s24.471-10.956,24.471-24.471c0-3.657,0-279.904,0-323.735c0-1.419,1.148-2.57,2.567-2.574s2.574,1.142,2.581,2.561
			c0.424,84.301,0.345,54.23,0.345,131.89c0,11.263,9.13,20.393,20.393,20.393s20.393-9.13,20.393-20.393
			C511.995,205.044,512.073,235.171,511.649,150.737z"/>
	</g>
</g>
<g>
</g>
<g>
</g>
<g>
</g>
<g>
</g>
<g>
</g>
<g>
</g>
<g>
</g>
<g>
</g>
<g>
</g>
<g>
</g>
<g>
</g>
<g>
</g>
<g>
</g>
<g>
</g>
<g>
</g>
</svg>
