<?xml version="1.0" encoding="iso-8859-1"?>
<!-- Generator: Adobe Illustrator 19.0.0, SVG Export Plug-In . SVG Version: 6.00 Build 0)  -->
<svg version="1.1" id="Layer_1" xmlns="http://www.w3.org/2000/svg" xmlns:xlink="http://www.w3.org/1999/xlink" x="0px" y="0px"
	 viewBox="0 0 512.001 512.001" style="enable-background:new 0 0 512.001 512.001;" xml:space="preserve">
<g>
	<g>
		<polygon points="314.177,372.978 344.23,377.827 344.23,370.199 		"/>
	</g>
</g>
<g>
	<g>
		<path d="M113.048,123.112c-24.781,0-45.043,20.161-45.168,44.941l-0.704,140.223c-0.052,10.542,8.45,19.129,18.99,19.182
			c0.033,0,0.066,0,0.098,0c10.496,0,19.031-8.483,19.085-18.99l0.704-140.222c0-0.017,0-0.033,0-0.05
			c0.024-2.082,1.727-3.754,3.81-3.741c2.083,0.012,3.763,1.704,3.763,3.788l0.009,320.855c0,12.649,10.254,22.903,22.903,22.903
			c12.649,0,22.903-10.254,22.903-22.903V306.024h9.89v183.073c0,12.649,10.254,22.903,22.903,22.903
			c12.649,0,22.903-10.254,22.903-22.903c0-88.097-0.416-239.744-0.416-327.811h22.244c1.735-15.004,8.877-28.392,19.415-38.174
			C156.398,123.112,159.373,123.112,113.048,123.112z"/>
	</g>
</g>
<g>
	<g>
		<path d="M188.971,68.897c-7.393,3.213-15.693,4.92-24.29,4.92c-8.663,0-17.014-1.73-24.441-4.985
			c-2.551,4.529-7.32,7.325-12.539,7.325h-3.058c1.864,20.417,19.025,36.412,39.928,36.412c20.903,0,38.063-15.995,39.928-36.412
			C201.849,76.155,193.58,76.977,188.971,68.897z"/>
	</g>
</g>
<g>
	<g>
		<path d="M298.955,425.683v4.185c0,12.503,10.135,22.638,22.638,22.638s22.638-10.136,22.638-22.638v-13.185
			C297.13,426.373,300.76,425.753,298.955,425.683z"/>
	</g>
</g>
<g>
	<g>
		<polygon points="298.955,391.392 298.955,404.964 335.93,397.357 		"/>
	</g>
</g>
<g>
	<g>
		<path d="M386.228,80.045c-5.186-0.001-9.941-2.771-12.5-7.26c-7.393,3.213-15.693,4.92-24.29,4.92
			c-8.663,0-17.014-1.73-24.441-4.985c-2.551,4.529-7.32,7.325-12.539,7.325h-1.644c3.636,17.84,19.416,31.248,38.309,31.248
			c18.825,0,34.663-13.36,38.309-31.248H386.228z"/>
	</g>
</g>
<g>
	<g>
		<path d="M444.506,168.175c-0.123-24.493-20.152-44.419-44.646-44.419c-11.921,0-89.429,0-101.478,0
			c-24.495,0-44.522,19.928-44.644,44.42l-0.697,138.595c-0.05,10.071,7.805,18.314,17.739,18.902c0,7.63,0,168.619,0,175.201
			c0,5.69,4.611,10.302,10.301,10.302s10.301-4.612,10.301-10.302c0-116.585-0.016-233.723,0.086-332.511
			c0.059-2.161,1.842-3.871,4.002-3.841c2.16,0.03,3.893,1.79,3.893,3.95c0,103.61-0.41,139.685-0.41,185.223
			c47.294-4.374,44.188-4.134,45.276-4.104v-45.046h10.003c-0.361,2.688-0.228-10.971-0.228,183.992
			c0,12.503,10.135,22.638,22.638,22.638s22.638-10.136,22.638-22.638c0-193.903,0.01-205.509,0.01-205.509l-30.141,10.293
			c-20.621,7.042-43.059-3.963-50.105-24.595c-7.05-20.643,3.951-43.056,24.595-50.105l55.651-19.005v-31.234
			c0-2.063,1.67-3.738,3.733-3.743s3.742,1.66,3.752,3.724c0.077,15.269,0.152,30.438,0.23,45.83l0.142-0.049l13.588,39.788
			l11.323-3.866c7.633-2.607,12.808-9.87,12.768-17.948C444.774,221.465,444.544,175.602,444.506,168.175z"/>
	</g>
</g>
<g>
	<g>
		<path d="M350.297,238.119c-3.696,1.263-6.747,3.56-8.94,6.458c-0.212,0.281-0.4,0.58-0.596,0.872
			c-0.141,0.21-0.296,0.411-0.428,0.626c-2.85,4.63-3.687,10.448-1.792,15.995c2.678,7.841,10.004,12.775,17.851,12.774
			c1.391,0,2.799-0.168,4.2-0.489c0.126-0.029,0.252-0.047,0.378-0.079c0.509-0.128,1.016-0.278,1.52-0.45L350.297,238.119z"/>
	</g>
</g>
<g>
	<g>
		<path d="M210.449,61.217c-1.564-8.437-5.41-29.253-5.41-30.027C205.039,13.965,186.97,0,164.681,0
			c-21.27,0-38.684,12.719-40.232,28.851h-0.124l-5.635,32.403c-0.314,1.81,1.081,3.465,2.915,3.465h6.097
			c1.098,0,2.104-0.608,2.617-1.578l5.405-10.238c7.334,5.842,17.595,9.477,28.959,9.477c11.271,0,21.458-3.574,28.78-9.333
			l5.402,10.107c0.514,0.963,1.518,1.564,2.61,1.564h6.066C209.387,64.719,210.788,63.041,210.449,61.217z"/>
	</g>
</g>
<g>
	<g>
		<path d="M395.204,65.106c-1.564-8.437-5.41-29.253-5.41-30.027c0-17.226-18.069-31.191-40.357-31.191
			c-21.27,0-38.684,12.719-40.232,28.851h-0.124l-5.635,32.403c-0.316,1.811,1.08,3.466,2.914,3.466h6.097
			c1.098,0,2.104-0.608,2.617-1.578l5.405-10.238c7.334,5.842,17.595,9.477,28.959,9.477c11.271,0,21.458-3.574,28.78-9.333
			l5.402,10.107c0.514,0.963,1.518,1.564,2.61,1.564h6.066C394.142,68.608,395.543,66.93,395.204,65.106z"/>
	</g>
</g>
<g>
</g>
<g>
</g>
<g>
</g>
<g>
</g>
<g>
</g>
<g>
</g>
<g>
</g>
<g>
</g>
<g>
</g>
<g>
</g>
<g>
</g>
<g>
</g>
<g>
</g>
<g>
</g>
<g>
</g>
</svg>
