<?xml version="1.0" encoding="iso-8859-1"?>
<!-- Generator: Adobe Illustrator 19.0.0, SVG Export Plug-In . SVG Version: 6.00 Build 0)  -->
<svg version="1.1" id="Layer_1" xmlns="http://www.w3.org/2000/svg" xmlns:xlink="http://www.w3.org/1999/xlink" x="0px" y="0px"
	 viewBox="0 0 512 512" style="enable-background:new 0 0 512 512;" xml:space="preserve">
<g>
	<g>
		<path d="M279.686,238.362c5.628-8.293,13.824-14.123,23.098-16.941l-35.543-21.458c-6.676-4.03-15.365-1.428-18.74,5.574
			c-3.06,6.344-23.623,49.023-29.786,61.809L118.29,312.055c-14.763-3.289-15.16-3.377-33.503-7.462
			c-6.057-1.348-12.351,0.908-16.172,5.801L9.629,385.97c-5.464,7-4.218,17.105,2.782,22.569c7.009,5.47,17.11,4.208,22.568-2.783
			l52.734-67.565c5.663,1.261,47.94,10.953,68.387,15.642c7.099,1.628,14.542,1.003,21.262-1.807
			c2.989-1.25,6.496-2.705,10.33-4.276c-9.246-0.283-7.289-0.223-16.401-0.501c-13.79-0.42-24.53-11.962-24.113-25.63
			c0.414-13.618,11.647-24.536,25.63-24.112l39.245,1.198l30.765-25.013l-26.489,37.337c-48.371-1.477-43.7-1.362-44.757-1.323
			c-6.771,0.249-11.927,5.672-12.201,12.131c-0.002,0.052-0.011,0.102-0.012,0.154c-0.215,7.013,5.3,12.863,12.302,13.077
			c0.303,0.009,50.783,1.554,51.086,1.554c3.882,0,7.789-1.822,10.354-5.349l30.852-43.487l-14.02,34.458l21.831-8.946
			c8.055-3.301,11.91-12.519,8.598-20.574l-12.2-29.671c-2.199-5.347-7.242-9.238-13.368-9.708
			c8.59-17.807,4.507-9.343,11.211-23.241L279.686,238.362z"/>
	</g>
</g>
<g>
	<g>
		<path d="M360.498,308.403c-4.472-1.951-8.204-4.888-11.066-8.441L8.626,437.131c-7.051,2.837-10.465,10.854-7.627,17.904
			c2.838,7.049,10.852,10.466,17.904,7.627l354.869-142.83c4.705-1.894,7.778-6.096,8.467-10.777
			C375.422,311.549,367.675,311.533,360.498,308.403z"/>
	</g>
</g>
<g>
	<g>
		<path d="M508.027,89.721l-21.493,4.272l0.184,12.01c0.082,5.432-3.725,10.143-9.053,11.202l-2.148,0.426
			c-5.613,1.116-11.17-2.126-12.914-7.636l-3.35-10.581l-13.215,2.626c-0.193,0.038-0.39,0.06-0.584,0.087
			c0.311,17.632,14.691,31.831,32.397,31.831c17.901,0,32.413-14.512,32.413-32.413C510.263,97.371,509.464,93.386,508.027,89.721z"
			/>
	</g>
</g>
<g>
	<g>
		<path d="M501.856,343.521l-18.925-51.599l9.855-119.897c1.073-13.057-8.641-24.51-21.697-25.584l-16.181-1.33
			c-23.566-1.937-44.631,12.876-51.505,34.49l29.046-13.106l-39.313,32.052c-1.944,1.585-3.481,3.612-4.484,5.91l-30.896,70.835
			c-3.478,7.973,0.166,17.257,8.141,20.735c7.973,3.479,17.258-0.168,20.735-8.141l29.37-67.336l36.355-29.641l-26.286,34.906
			c-24.045,60.517-26.187,66.363-28.647,70.568l8.369,54.563l-24.222,88.346c-2.76,10.068,3.164,20.467,13.232,23.227
			c10.069,2.761,20.468-3.165,23.227-13.232l25.286-92.229c0.701-2.559,0.856-5.239,0.454-7.863l-9.179-59.844l7.353,0.604
			l22.549,61.475l-18.836,88.943c-2.162,10.212,4.363,20.245,14.575,22.409c10.213,2.162,20.246-4.365,22.409-14.575l19.963-94.262
			C503.338,350.47,503.079,346.856,501.856,343.521z"/>
	</g>
</g>
<g>
	<g>
		<path d="M511.987,79.729v-0.002c-2.438-19.621-20.321-33.549-39.943-31.111c-21.41,2.661-35.623,23.532-30.263,44.411
			c0.317,1.237,1.561,2.002,2.816,1.752l19.715-3.918l5.351,16.9c0.591,1.866,2.49,2.99,4.412,2.608l2.148-0.426
			c1.82-0.362,3.122-1.972,3.093-3.828l-0.278-18.181l31.553-6.27C511.49,81.484,512.099,80.64,511.987,79.729z"/>
	</g>
</g>
<g>
	<g>
		<path d="M342.805,251.296c-4.725-11.528-15.848-18.504-27.581-18.504c-21.085,0-35.604,21.468-27.559,41.101
			c4.725,11.528,15.848,18.504,27.581,18.504C336.333,292.397,350.851,270.929,342.805,251.296z"/>
	</g>
</g>
<g>
</g>
<g>
</g>
<g>
</g>
<g>
</g>
<g>
</g>
<g>
</g>
<g>
</g>
<g>
</g>
<g>
</g>
<g>
</g>
<g>
</g>
<g>
</g>
<g>
</g>
<g>
</g>
<g>
</g>
</svg>
