<?xml version="1.0" standalone="no"?>
<!DOCTYPE svg PUBLIC "-//W3C//DTD SVG 20010904//EN"
 "http://www.w3.org/TR/2001/REC-SVG-20010904/DTD/svg10.dtd">
<svg version="1.0" xmlns="http://www.w3.org/2000/svg"
 width="156.000000pt" height="156.000000pt" viewBox="0 0 156.000000 156.000000"
 preserveAspectRatio="xMidYMid meet">
<metadata>
Created by potrace 1.11, written by Peter Selinger 2001-2013
</metadata>
<g transform="translate(0.000000,156.000000) scale(0.100000,-0.100000)"
fill="#000000" stroke="none">
<path d="M585 1521 c-151 -41 -268 -112 -371 -225 -76 -82 -119 -154 -158
-263 -30 -84 -31 -95 -31 -243 0 -148 1 -159 31 -243 45 -124 87 -190 184
-287 97 -97 163 -139 287 -184 84 -30 95 -31 243 -31 148 0 159 1 243 31 124
45 190 87 287 184 97 97 139 163 184 287 30 84 31 95 31 243 0 148 -1 159 -31
243 -45 124 -87 190 -184 287 -98 98 -164 140 -287 183 -79 27 -103 31 -223
34 -108 2 -149 -1 -205 -16z"/>
</g>
</svg>
