<?xml version="1.0" standalone="no"?>
<!DOCTYPE svg PUBLIC "-//W3C//DTD SVG 20010904//EN"
 "http://www.w3.org/TR/2001/REC-SVG-20010904/DTD/svg10.dtd">
<svg version="1.0" xmlns="http://www.w3.org/2000/svg"
 width="156.000000pt" height="153.000000pt" viewBox="0 0 156.000000 153.000000"
 preserveAspectRatio="xMidYMid meet">

<g transform="translate(0.000000,153.000000) scale(0.100000,-0.100000)"
fill="#000000" stroke="none">
<path d="M635 1515 c-414 -78 -683 -474 -599 -883 83 -406 479 -669 882 -586
463 95 725 589 543 1024 -134 320 -484 509 -826 445z m283 -31 c151 -31 285
-106 390 -219 56 -60 117 -153 141 -217 l11 -28 -150 0 -150 0 0 141 c0 234
-12 253 -163 255 l-102 1 89 -6 89 -6 17 -50 c9 -28 15 -67 12 -87 -4 -38 -4
-38 -51 -38 -25 0 -76 3 -113 6 l-68 7 7 88 6 89 -32 0 c-26 0 -31 -4 -31 -25
0 -22 -4 -24 -57 -27 -51 -3 -58 -6 -61 -25 -3 -17 -10 -23 -30 -23 -42 -1
-154 -44 -206 -79 -62 -43 -125 -110 -162 -171 l-29 -50 -98 0 -97 0 15 38
c131 312 485 496 823 426z m-108 -157 c0 -13 -5 -61 -11 -106 -6 -45 -9 -84
-6 -87 3 -3 83 -11 178 -17 l174 -12 3 -71 c2 -56 -1 -75 -15 -93 -18 -21 -20
-21 -163 -11 -80 5 -161 10 -181 10 l-37 0 -7 -55 c-7 -63 -24 -85 -64 -85
-58 0 -58 10 -12 268 23 130 42 247 41 260 0 20 5 22 50 22 46 0 50 -2 50 -23z
m-115 -39 c-14 -63 -75 -425 -75 -449 0 -56 74 -74 116 -28 9 10 19 42 22 70
l5 51 45 -6 c25 -3 65 -6 89 -6 l45 0 -20 -32 c-11 -18 -31 -66 -46 -105 -29
-84 -61 -149 -76 -158 -6 -4 -31 12 -55 34 -48 44 -55 47 -73 29 -23 -23 -12
-39 41 -63 l52 -23 -30 -12 c-19 -7 -70 -10 -140 -8 -122 4 -199 28 -268 84
-35 28 -37 32 -37 89 0 49 -4 64 -21 79 -18 15 -20 24 -14 64 28 184 174 347
356 396 79 21 90 20 84 -6z m400 -428 c57 -33 115 -60 129 -60 17 0 27 -7 32
-22 10 -35 35 -58 61 -58 26 0 27 -3 13 -30 -9 -17 -18 -19 -68 -14 -81 8
-162 -23 -192 -73 -18 -31 -20 -45 -14 -99 6 -62 7 -64 50 -89 40 -24 43 -27
33 -52 -5 -14 -12 -29 -14 -33 -3 -5 -39 1 -80 11 l-76 20 -48 -43 c-27 -24
-89 -80 -137 -124 l-89 -82 -193 127 -194 126 7 105 c3 57 8 106 9 108 2 2 21
-5 43 -16 65 -33 138 -45 243 -40 80 4 109 10 153 32 l55 27 59 -19 c32 -11
79 -23 106 -26 43 -7 47 -6 47 14 0 18 -4 20 -33 15 -31 -6 -86 4 -143 25
l-23 9 34 51 c23 34 39 75 50 127 20 96 40 143 60 143 9 0 63 -27 120 -60z
m115 -200 c0 -5 -4 -10 -10 -10 -5 0 -10 5 -10 10 0 6 5 10 10 10 6 0 10 -4
10 -10z m70 0 c0 -13 -11 -13 -30 0 -12 8 -11 10 8 10 12 0 22 -4 22 -10z
m-131 -240 c9 0 23 6 30 13 11 10 11 8 2 -10 -14 -27 -14 -27 -52 -7 -26 13
-29 17 -17 31 12 15 13 14 16 -5 2 -13 11 -22 21 -22z"/>
<path d="M664 855 c-8 -21 2 -45 19 -45 21 0 38 25 31 44 -8 20 -43 21 -50 1z"/>
<path d="M991 862 c-12 -23 15 -42 61 -42 l33 1 -35 29 c-40 35 -46 36 -59 12z
m49 -23 c0 -12 -27 -11 -35 1 -11 17 5 32 21 19 8 -6 14 -15 14 -20z"/>
</g>
</svg>
